<svg version="1.2" xmlns="http://www.w3.org/2000/svg" viewBox="0 0 1000 1000" width="1000" height="1000">
	<title>209784-P04PJ5-69-ai</title>
	<defs>
		<clipPath clipPathUnits="userSpaceOnUse" id="cp1">
			<path d="m613.04 338.95c0 62.43-50.61 113.03-113.04 113.03-62.43 0-113.04-50.6-113.04-113.03 0-62.43 50.61-113.04 113.04-113.04 62.43 0 113.04 50.61 113.04 113.04z"/>
		</clipPath>
	</defs>
	<style>
		tspan { white-space:pre } 
		.s0 { fill: #d1d1d1 } 
		.s1 { fill: #e25f3f } 
		.s2 { fill: #a2482a } 
		.s3 { fill: #d9d8db } 
		.s4 { fill: #c6c5ca } 
		.s5 { fill: #acacb2 } 
		.s6 { fill: #ffffff } 
		.s7 { fill: #e1e1e3 } 
	</style>
	<g id="BACKGROUND">
	</g>
	<g id="OBJECTS">
		<g id="&lt;Group&gt;">
			<g id="&lt;Group&gt;">
				<path id="&lt;Path&gt;" class="s0" d="m631.5 352.9c0 72.7-58.9 131.6-131.5 131.6-72.6 0-131.5-58.9-131.5-131.6 0-72.6 58.9-131.5 131.5-131.5 72.6 0 131.5 58.9 131.5 131.5z"/>
				<path id="&lt;Path&gt;" class="s1" d="m631.5 338.9c0 72.7-58.9 131.6-131.5 131.6-72.6 0-131.5-58.9-131.5-131.6 0-72.6 58.9-131.5 131.5-131.5 72.6 0 131.5 58.9 131.5 131.5z"/>
				<path id="&lt;Path&gt;" class="s2" d="m613.1 338.9c0 62.5-50.6 113.2-113.1 113.2-62.5 0-113.1-50.7-113.1-113.2 0-62.4 50.6-113.1 113.1-113.1 62.5 0 113.1 50.7 113.1 113.1z"/>
				<g id="&lt;Clip Group&gt;" clip-path="url(#cp1)">
					<g id="&lt;Group&gt;">
						<path id="&lt;Path&gt;" class="s3" d="m539.5 385.7c-11.4-5.7-18.6-17.3-18.6-30v-18.9h-41.8v18.9c0 12.7-7.2 24.3-18.6 30l-12.6 6.2c-13.7 6.8-22.4 20.8-22.4 36.1l74.5 44.4 74.5-44.4c0-15.3-8.7-29.3-22.4-36.1z"/>
						<path id="&lt;Path&gt;" class="s4" d="m500 336.8v91.2 44.4l74.5-44.4c0-15.3-8.7-29.3-22.4-36.1l-12.6-6.2c-11.4-5.7-18.6-17.3-18.6-30v-18.9z"/>
						<path id="&lt;Path&gt;" class="s4" d="m500 384.3c8.1 0 16.5-5.9 23.9-14.8-1.9-4.3-3-8.9-3-13.8v-18.9h-41.8v18.9c0 4.9-1.1 9.5-3 13.7 7.4 9 15.8 14.9 23.9 14.9z"/>
						<path id="&lt;Path&gt;" class="s5" d="m500 384.3c8.1 0 16.5-5.9 23.9-14.8q-0.2-0.5-0.4-0.9-0.2-0.5-0.4-1-0.2-0.5-0.3-0.9-0.2-0.6-0.4-1.1-0.1-0.5-0.2-0.9-0.3-0.9-0.5-1.9-0.1-0.2-0.1-0.5-0.2-0.8-0.3-1.6 0-0.3-0.1-0.7-0.1-0.7-0.1-1.5-0.1-0.3-0.1-0.6-0.1-1.1-0.1-2.2v-18.9h-20.9v47.5q0 0 0 0z"/>
						<path id="&lt;Path&gt;" class="s6" d="m547.4 291.2v-9.6c0-26.1-21.2-47.3-47.4-47.3-26.1 0-47.3 21.2-47.3 47.3v9c-5.2 1.3-9.1 4.8-9.1 12.1 0 7.8 7.6 18.8 13.7 19.7 8.1 25.7 26 50.6 42.7 50.6 16.6 0 34.2-24.3 42.5-49.8q0.1 0 0.2 0c6.1 0 14.6-11.5 14.6-19.7 0-7.7-4.3-11.5-9.9-12.3z"/>
						<path id="&lt;Path&gt;" class="s7" d="m500 373q0 0 0 0c16.6 0 34.2-24.3 42.5-49.8q0.1 0 0.2 0c6.1 0 14.6-11.5 14.6-19.7 0-7.7-4.3-11.5-9.9-12.3v-9.6c0-26.1-21.2-47.3-47.4-47.3z"/>
					</g>
				</g>
			</g>
		</g>
	</g>
</svg>